# xmcd
#
# Track frame offsets: 
#        150
#        34425
#        62254
#        90325
#        116716
#        145726
#        166774
#        185252
#        206191
#        228133
#        257804
#        283264
#        297460
#        312968
#
# Disc length: 4523 seconds
#
# Revision: 0
# Processed by: cddbd v1.5.2PL0 Copyright (c) Steve Scherf et al.
# Submitted via: ExactAudioCopy v0.99pb5
#
DISCID=ca11a90e
DTITLE=Various Artist - Blues Mafia - Best Of Blues [CD2)
DYEAR=2010
DGENRE=Blues
TTITLE0=Every Time I Sing The Blues (featuring Eric Clapton)
TTITLE1=A Quitter Never Wins
TTITLE2=A Quitter Never Wins
TTITLE3=Demons In The Night
TTITLE4=Old Love
TTITLE5=Now That the Magic Has Gone
TTITLE6=I Put A Spell On You
TTITLE7=Blue Jean Blues
TTITLE8=Here I Come Again (Reprise)
TTITLE9=Today is yesterday's tomorrow
TTITLE10=I Found Happiness
TTITLE11=That's How Strong My Love Is
TTITLE12=Ain't No Sunsihine
TTITLE13=Good Enough
EXTD=
EXTT0=
EXTT1=
EXTT2=
EXTT3=
EXTT4=
EXTT5=
EXTT6=
EXTT7=
EXTT8=
EXTT9=
EXTT10=
EXTT11=
EXTT12=
EXTT13=
PLAYORDER=
